<svg width="22" height="18" viewBox="0 0 22 18" fill="none" xmlns="http://www.w3.org/2000/svg">
<path d="M8.12153 2.02447C8.0837 2.03529 8.04838 2.05345 8.01757 2.07791C7.98676 2.10238 7.96107 2.13267 7.94197 2.16706C7.92287 2.20146 7.91073 2.23927 7.90625 2.27836C7.90177 2.31744 7.90502 2.35703 7.91584 2.39485C8.10774 3.06407 8.51226 3.65264 9.06827 4.07162C9.62428 4.49059 10.3016 4.71721 10.9978 4.71721C11.694 4.71721 12.3713 4.49059 12.9273 4.07162C13.4833 3.65264 13.8878 3.06407 14.0797 2.39485C14.0907 2.35697 14.0941 2.31729 14.0898 2.27809C14.0854 2.23888 14.0733 2.20093 14.0542 2.1664C14.0352 2.13188 14.0094 2.10146 13.9786 2.0769C13.9477 2.05233 13.9123 2.0341 13.8744 2.02326C13.8365 2.01242 13.7968 2.00917 13.7576 2.01371C13.7184 2.01824 13.6805 2.03047 13.646 2.0497C13.6116 2.06892 13.5813 2.09476 13.5568 2.12572C13.5324 2.15669 13.5143 2.19218 13.5036 2.23015C13.3475 2.7742 13.0186 3.25267 12.5665 3.59327C12.1144 3.93386 11.5638 4.11807 10.9978 4.11807C10.4318 4.11807 9.88111 3.93386 9.42903 3.59327C8.97696 3.25267 8.64801 2.7742 8.4919 2.23015C8.47006 2.15376 8.41877 2.08918 8.34931 2.05061C8.27985 2.01204 8.19792 2.00264 8.12153 2.02447Z" stroke="url(#paint0_linear_87_192)" stroke-width="0.829547"/>
<path d="M21.4122 6.4708L17.3239 2.38132C17.293 2.35045 17.2618 2.32 17.2302 2.28996C16.3329 1.44673 15.1484 0.976657 13.9171 0.975213L13.6159 0.972659H13.6133C13.5339 0.972327 13.4575 1.00357 13.4011 1.05952C13.3447 1.11546 13.3128 1.19153 13.3125 1.27098C13.3122 1.35043 13.3434 1.42676 13.3994 1.48317C13.4553 1.53959 13.5314 1.57147 13.6108 1.5718L13.912 1.57435C14.9915 1.57469 16.0304 1.9859 16.8176 2.72447C16.8454 2.75085 16.8729 2.77765 16.9001 2.80487L20.7768 6.6826L18.1188 9.34043L17.2236 8.44524C17.1674 8.38906 17.0912 8.3575 17.0118 8.3575C16.9323 8.3575 16.8561 8.38906 16.7999 8.44524C16.7438 8.50142 16.7122 8.57762 16.7122 8.65708C16.7122 8.73653 16.7438 8.81273 16.7999 8.86891L17.907 9.97594C17.9348 10.0038 17.9678 10.0258 18.0042 10.0409C18.0405 10.0559 18.0795 10.0637 18.1188 10.0637C18.1582 10.0637 18.1971 10.0559 18.2335 10.0409C18.2698 10.0258 18.3028 10.0038 18.3307 9.97594L21.4122 6.89447C21.44 6.86665 21.4621 6.83363 21.4772 6.79728C21.4922 6.76094 21.5 6.72198 21.5 6.68264C21.5 6.6433 21.4922 6.60434 21.4772 6.568C21.4621 6.53165 21.4401 6.49862 21.4122 6.4708Z" fill="white" fill-opacity="0.8" stroke="url(#paint1_linear_87_192)" stroke-width="0.829547"/>
<path d="M4.79727 8.42478L3.88111 9.34092L1.2232 6.68308L5.09983 2.80537C5.12701 2.77816 5.15449 2.75138 5.18228 2.72503C5.96955 1.98641 7.00848 1.57516 8.08801 1.57483L8.44491 1.5718C8.52436 1.57147 8.60043 1.53959 8.65638 1.48317C8.71232 1.42676 8.74357 1.35043 8.74324 1.27098C8.7429 1.19153 8.71102 1.11546 8.65461 1.05952C8.59819 1.00357 8.52186 0.972327 8.44241 0.972659H8.4398L8.08291 0.975693C6.85157 0.977143 5.66696 1.44726 4.76972 2.29053C4.73818 2.32048 4.70698 2.35088 4.67613 2.38173L0.587723 6.47129C0.53155 6.52747 0.499995 6.60367 0.5 6.68312C0.500005 6.76256 0.531569 6.83876 0.58775 6.89493L3.66929 9.9764C3.69711 10.0042 3.73013 10.0263 3.76648 10.0413C3.80283 10.0564 3.84178 10.0641 3.88113 10.0641C3.92047 10.0641 3.95942 10.0564 3.99577 10.0413C4.03212 10.0263 4.06514 10.0042 4.09296 9.9764L5.22095 8.84844C5.27713 8.79226 5.3087 8.71606 5.3087 8.63661C5.3087 8.55716 5.27713 8.48096 5.22095 8.42478C5.16477 8.3686 5.08857 8.33703 5.00911 8.33703C4.92966 8.33703 4.85346 8.3686 4.79727 8.42478Z" stroke="url(#paint2_linear_87_192)" stroke-width="0.829547"/>
<path d="M16.4915 5.62702C16.4154 5.6043 16.3333 5.61274 16.2634 5.6505C16.1935 5.68825 16.1415 5.75223 16.1187 5.82835L15.7491 7.06622C15.7408 7.09404 15.7365 7.12292 15.7365 7.15195V16.4244L6.25827 16.4024V7.12854C6.25827 7.09951 6.25405 7.07064 6.24574 7.04282L5.87606 5.80494C5.86494 5.76709 5.84645 5.73182 5.82165 5.70113C5.79686 5.67045 5.76624 5.64496 5.73157 5.62614C5.6969 5.60732 5.65886 5.59553 5.61962 5.59145C5.58038 5.58737 5.54072 5.59108 5.50292 5.60237C5.46512 5.61366 5.42992 5.6323 5.39934 5.65723C5.36877 5.68215 5.34342 5.71287 5.32474 5.74762C5.30607 5.78237 5.29445 5.82047 5.29054 5.85973C5.28663 5.89898 5.29051 5.93862 5.30196 5.97637L5.65912 7.17232V16.7013C5.65912 16.7807 5.69058 16.8567 5.74662 16.9129C5.80265 16.9691 5.87867 17.0007 5.958 17.0009L16.0354 17.0243H16.0361C16.1156 17.0243 16.1918 16.9927 16.2479 16.9365C16.3041 16.8803 16.3357 16.8041 16.3357 16.7247V7.19572L16.6928 5.99978C16.7156 5.92365 16.7071 5.84161 16.6694 5.7717C16.6316 5.7018 16.5676 5.64975 16.4915 5.62702Z" stroke="url(#paint3_linear_87_192)" stroke-width="0.829547"/>
<defs>
<linearGradient id="paint0_linear_87_192" x1="10.9979" y1="2.01172" x2="10.9979" y2="4.71721" gradientUnits="userSpaceOnUse">
<stop stop-color="white"/>
<stop offset="1" stop-color="#C4C2C2"/>
</linearGradient>
<linearGradient id="paint1_linear_87_192" x1="17.4062" y1="0.972656" x2="17.4062" y2="10.0637" gradientUnits="userSpaceOnUse">
<stop stop-color="white"/>
<stop offset="1" stop-color="#C4C2C2"/>
</linearGradient>
<linearGradient id="paint2_linear_87_192" x1="4.62162" y1="0.972656" x2="4.62162" y2="10.0641" gradientUnits="userSpaceOnUse">
<stop stop-color="white"/>
<stop offset="1" stop-color="#C4C2C2"/>
</linearGradient>
<linearGradient id="paint3_linear_87_192" x1="10.9972" y1="5.58984" x2="10.9972" y2="17.0243" gradientUnits="userSpaceOnUse">
<stop stop-color="white"/>
<stop offset="1" stop-color="#C4C2C2"/>
</linearGradient>
</defs>
</svg>
