<svg width="10" height="15" viewBox="0 0 10 15" fill="none" xmlns="http://www.w3.org/2000/svg">
<path d="M7.87598 8.94043C8.18724 8.62917 8.69165 8.6292 9.00293 8.94043C9.3142 9.25171 9.3142 9.7561 9.00293 10.0674L5.2832 13.7871C4.97192 14.0984 4.46753 14.0984 4.15625 13.7871L0.436523 10.0674C0.125298 9.7561 0.125271 9.25169 0.436523 8.94043C0.747787 8.62917 1.25219 8.6292 1.56348 8.94043L4.71973 12.0967L7.87598 8.94043ZM4.2168 0.381836C4.52985 0.126514 4.99138 0.144751 5.2832 0.436523L9.00293 4.15625C9.3142 4.46753 9.3142 4.97193 9.00293 5.2832C8.69165 5.59447 8.18725 5.59447 7.87598 5.2832L4.71973 2.12695L1.56348 5.2832C1.2522 5.59447 0.747799 5.59448 0.436523 5.2832C0.125299 4.97192 0.125274 4.46751 0.436523 4.15625L4.15625 0.436523L4.2168 0.381836Z" fill="white"/>
</svg>
