<svg xmlns="http://www.w3.org/2000/svg" width="35" height="35" viewBox="0 0 35 35" fill="none">
  <path d="M35 17.5C35 27.165 27.165 35 17.5 35C7.83502 35 0 27.165 0 17.5C0 7.83502 7.83502 0 17.5 0C27.165 0 35 7.83502 35 17.5ZM1.75 17.5C1.75 26.1985 8.80152 33.25 17.5 33.25C26.1985 33.25 33.25 26.1985 33.25 17.5C33.25 8.80152 26.1985 1.75 17.5 1.75C8.80152 1.75 1.75 8.80152 1.75 17.5Z" fill="#121212" fill-opacity="0.4"/>
  <path d="M17.5 35C14.6578 35 11.8584 34.3077 9.34379 32.9831C6.82918 31.6584 4.67504 29.7413 3.06762 27.3973C1.46019 25.0533 0.447866 22.3531 0.118153 19.5301C-0.21156 16.7071 0.151266 13.8463 1.17526 11.195L2.80774 11.8255C1.88614 14.2117 1.5596 16.7864 1.85634 19.3271C2.15308 21.8678 3.06418 24.298 4.51086 26.4076C5.95753 28.5171 7.89626 30.2426 10.1594 31.4348C12.4226 32.627 14.942 33.25 17.5 33.25V35Z" fill="#33963C"/>
</svg>